<svg xmlns="http://www.w3.org/2000/svg" xmlns:xlink="http://www.w3.org/1999/xlink" width="160.207" height="43.876" viewBox="0 0 160.207 43.876">
  <defs>
    <clipPath id="clip-path">
      <rect id="Rectángulo_7" data-name="Rectángulo 7" width="160.207" height="43.876" fill="none"/>
    </clipPath>
  </defs>
  <g id="Grupo_5" data-name="Grupo 5" transform="translate(-79 0)">
    <rect id="Rectángulo_5" data-name="Rectángulo 5" width="14.874" height="42.79" transform="translate(107.439 0.795)" fill="#0a0d42"/>
    <g id="Grupo_4" data-name="Grupo 4" transform="translate(79 0)">
      <g id="Grupo_3" data-name="Grupo 3" clip-path="url(#clip-path)">
        <path id="Trazado_1" data-name="Trazado 1" d="M65.7.8a9.069,9.069,0,0,1,6.707,2.474,8.639,8.639,0,0,1,2.525,6.45,8.641,8.641,0,0,1-2.525,6.451A9.072,9.072,0,0,1,65.7,18.645H59.5V.8ZM62.991,4.061V15.382H65.7c3.545,0,5.585-2.065,5.585-5.66,0-3.57-2.015-5.66-5.585-5.66Z" transform="translate(-2.387 -0.032)" fill="#0a0d42"/>
        <path id="Trazado_2" data-name="Trazado 2" d="M89.848,12.363v1.02h-9a2.939,2.939,0,0,0,3.111,2.907,2.475,2.475,0,0,0,2.6-1.5h3.214a5.676,5.676,0,0,1-5.917,4.335,6.245,6.245,0,0,1-4.667-1.836,6.864,6.864,0,0,1-1.759-4.9,6.724,6.724,0,0,1,1.785-4.845,6.055,6.055,0,0,1,4.641-1.913c3.57,0,5.993,2.321,5.993,6.732m-3.34-1.275a2.577,2.577,0,0,0-2.729-2.7,2.83,2.83,0,0,0-2.907,2.7Z" transform="translate(-3.106 -0.226)" fill="#0a0d42"/>
        <rect id="Rectángulo_6" data-name="Rectángulo 6" width="3.315" height="18.614" transform="translate(89.095 -0.001)" fill="#0a0d42"/>
        <path id="Trazado_3" data-name="Trazado 3" d="M109.324,10.349v8.49h-2.831l-.2-1.581a4.1,4.1,0,0,1-3.7,1.861A3.6,3.6,0,0,1,98.664,15.4c0-2.371,1.479-3.468,4-3.876l3.34-.611v-.485c0-1.3-.612-1.963-1.81-1.963a1.756,1.756,0,0,0-1.938,1.709H99.046A4.788,4.788,0,0,1,104.2,5.631c3.162,0,5.126,1.632,5.126,4.718m-3.315,2.779-2.575.536q-1.454.344-1.454,1.453c0,.79.562,1.275,1.505,1.275a2.282,2.282,0,0,0,2.066-1.173,3.108,3.108,0,0,0,.459-1.709Z" transform="translate(-3.958 -0.226)" fill="#0a0d42"/>
        <path id="Trazado_4" data-name="Trazado 4" d="M130.521,5.924l-3.9,12.928h-3.468l-2.346-7.6-2.5,7.6h-3.29l-3.9-12.928h3.57l1.964,7.777.229,1.376.28-1.376,2.193-7.777h2.932l2.193,7.777.28,1.376.229-1.376,1.989-7.777Z" transform="translate(-4.457 -0.238)" fill="#0a0d42"/>
        <path id="Trazado_5" data-name="Trazado 5" d="M142.588,10.349v8.49h-2.831l-.2-1.581a4.1,4.1,0,0,1-3.7,1.861,3.6,3.6,0,0,1-3.927-3.722c0-2.371,1.479-3.468,4-3.876l3.34-.611v-.485c0-1.3-.612-1.963-1.81-1.963a1.756,1.756,0,0,0-1.938,1.709H132.31a4.788,4.788,0,0,1,5.152-4.539c3.162,0,5.126,1.632,5.126,4.718m-3.315,2.779-2.575.536q-1.454.344-1.454,1.453c0,.79.562,1.275,1.505,1.275a2.282,2.282,0,0,0,2.066-1.173,3.108,3.108,0,0,0,.459-1.709Z" transform="translate(-5.292 -0.226)" fill="#0a0d42"/>
        <path id="Trazado_6" data-name="Trazado 6" d="M152.748,9.105a4.123,4.123,0,0,0-2.575.765,3.08,3.08,0,0,0-1.046,2.4v6.578h-3.314V5.919h2.856l.306,2.065c.485-1.3,1.735-2.192,3.774-2.192Z" transform="translate(-5.849 -0.233)" fill="#0a0d42"/>
        <path id="Trazado_7" data-name="Trazado 7" d="M166.383,12.363v1.02h-9a2.939,2.939,0,0,0,3.111,2.907,2.475,2.475,0,0,0,2.6-1.5h3.214a5.676,5.676,0,0,1-5.917,4.335,6.244,6.244,0,0,1-4.667-1.836,6.864,6.864,0,0,1-1.759-4.9,6.724,6.724,0,0,1,1.785-4.845,6.054,6.054,0,0,1,4.641-1.913c3.57,0,5.993,2.321,5.993,6.732m-3.34-1.275a2.577,2.577,0,0,0-2.729-2.7,2.83,2.83,0,0,0-2.907,2.7Z" transform="translate(-6.176 -0.226)" fill="#0a0d42"/>
        <path id="Trazado_8" data-name="Trazado 8" d="M63.017,26.824V41.408h7.421v3.265H59.5V26.824Z" transform="translate(-2.387 -1.076)" fill="#0a0d42"/>
        <path id="Trazado_9" data-name="Trazado 9" d="M76.64,27.91a2.015,2.015,0,1,1-2.014-1.963A1.991,1.991,0,0,1,76.64,27.91m-.357,16.727H72.967V31.709h3.315Z" transform="translate(-2.913 -1.041)" fill="#0a0d42"/>
        <path id="Trazado_10" data-name="Trazado 10" d="M86.762,25.964v2.957a3.538,3.538,0,0,0-1.326-.28c-1.148,0-1.709.586-1.709,1.785V31.7h2.957V34.71H83.728v9.919H80.387V34.71h-2.04V31.7h2.04V30.35c0-3.034,1.633-4.615,4.667-4.615a6.3,6.3,0,0,1,1.709.229" transform="translate(-3.143 -1.033)" fill="#0a0d42"/>
        <path id="Trazado_11" data-name="Trazado 11" d="M100.162,38.39v1.02h-9a2.939,2.939,0,0,0,3.111,2.907,2.475,2.475,0,0,0,2.6-1.5h3.214a5.676,5.676,0,0,1-5.917,4.335A6.245,6.245,0,0,1,89.5,43.311a6.864,6.864,0,0,1-1.759-4.9,6.724,6.724,0,0,1,1.785-4.845,6.055,6.055,0,0,1,4.641-1.913c3.57,0,5.993,2.321,5.993,6.732m-3.34-1.275a2.577,2.577,0,0,0-2.729-2.7,2.83,2.83,0,0,0-2.907,2.7Z" transform="translate(-3.52 -1.27)" fill="#0a0d42"/>
        <path id="Trazado_12" data-name="Trazado 12" d="M28.556,29.948A14.278,14.278,0,1,0,14.278,44.226,14.277,14.277,0,0,0,28.556,29.948" transform="translate(0 -0.629)" fill="#34ccaa"/>
        <path id="Trazado_13" data-name="Trazado 13" d="M108.8,35.17A3.134,3.134,0,1,1,105.68,32,3.011,3.011,0,0,1,108.8,35.17m-.859,0a2.277,2.277,0,1,0-2.258,2.372,2.215,2.215,0,0,0,2.258-2.372m-1.432.378.618,1.249h-1.112l-.424-1.054h-.205V36.8h-.963V33.589h1.318a1.1,1.1,0,0,1,1.249,1.1,1,1,0,0,1-.481.859m-1.123-.492h.263c.241,0,.378-.127.378-.344a.332.332,0,0,0-.378-.355h-.263Z" transform="translate(-4.113 -1.284)" fill="#0a0d42"/>
      </g>
    </g>
  </g>
</svg>
